<svg width="61" height="61" viewBox="0 0 61 61" fill="none" xmlns="http://www.w3.org/2000/svg">
<path d="M54.0106 41.5814C51.7739 41.5814 50.7826 40.7172 49.3847 39.4972C47.8343 38.1755 45.9027 36.498 42.2681 36.498C38.6081 36.498 36.7018 38.1755 35.1514 39.4972C33.7535 40.7172 32.7368 41.5814 30.5002 41.5814C28.2889 41.5814 27.2722 40.7172 25.8743 39.4972C24.3239 38.1755 22.3923 36.498 18.7577 36.498C15.0977 36.498 13.166 38.1755 11.6156 39.4972C10.2177 40.7172 9.22641 41.5814 6.98975 41.5814C5.94766 41.5814 5.0835 42.4455 5.0835 43.4876C5.0835 44.5551 5.94766 45.3939 6.98975 45.3939C10.6497 45.3939 12.556 43.7418 14.1064 42.3947C15.5043 41.1747 16.521 40.3105 18.7577 40.3105C20.9943 40.3105 21.9856 41.1747 23.3835 42.3947C24.9339 43.7418 26.8656 45.3939 30.5002 45.3939C34.1602 45.3939 36.0918 43.7418 37.6422 42.3947C39.0402 41.1747 40.0314 40.3105 42.2681 40.3105C44.4793 40.3105 45.496 41.1747 46.8939 42.3947C48.4444 43.7418 50.376 45.3939 54.0106 45.3939C55.0527 45.3939 55.9168 44.5551 55.9168 43.4876C55.9168 42.4455 55.0527 41.5814 54.0106 41.5814Z" fill="#141416"/>
<path d="M54.0106 31.1107C51.7739 31.1107 50.7826 30.2211 49.3847 29.0265C47.8343 27.6794 45.9027 26.0273 42.2681 26.0273C38.6081 26.0273 36.7018 27.6794 35.1514 29.0265C33.7535 30.2211 32.7368 31.1107 30.5002 31.1107C28.2889 31.1107 27.2722 30.2211 25.8743 29.0265C24.3239 27.6794 22.3923 26.0273 18.7577 26.0273C15.0977 26.0273 13.166 27.6794 11.6156 29.0265C10.2177 30.2211 9.22641 31.1107 6.98975 31.1107C5.94766 31.1107 5.0835 31.9494 5.0835 33.0169C5.0835 34.059 5.94766 34.9232 6.98975 34.9232C10.6497 34.9232 12.556 33.2457 14.1064 31.8986C15.5043 30.704 16.521 29.8398 18.7577 29.8398C20.9943 29.8398 21.9856 30.704 23.3835 31.8986C24.9339 33.2457 26.8656 34.9232 30.5002 34.9232C34.1602 34.9232 36.0918 33.2457 37.6422 31.8986C39.0402 30.704 40.0314 29.8398 42.2681 29.8398C44.4793 29.8398 45.496 30.704 46.8939 31.8986C48.4444 33.2457 50.376 34.9232 54.0106 34.9232C55.0527 34.9232 55.9168 34.059 55.9168 33.0169C55.9168 31.9494 55.0527 31.1107 54.0106 31.1107Z" fill="#141416"/>
<path d="M6.98975 24.5023C10.6497 24.5023 12.556 22.8248 14.1064 21.5031C15.5043 20.2831 16.521 19.4189 18.7577 19.4189C20.9943 19.4189 21.9856 20.2831 23.3835 21.5031C24.9339 22.8248 26.8656 24.5023 30.5002 24.5023C34.1602 24.5023 36.0918 22.8248 37.6422 21.5031C39.0402 20.2831 40.0314 19.4189 42.2681 19.4189C44.4793 19.4189 45.496 20.2831 46.8939 21.5031C48.4444 22.8248 50.376 24.5023 54.0106 24.5023C55.0527 24.5023 55.9168 23.6381 55.9168 22.596C55.9168 21.5285 55.0527 20.6898 54.0106 20.6898C51.7739 20.6898 50.7826 19.8256 49.3847 18.6056C47.8343 17.2585 45.9027 15.6064 42.2681 15.6064C38.6081 15.6064 36.7018 17.2585 35.1514 18.6056C33.7535 19.8256 32.7368 20.6898 30.5002 20.6898C28.2889 20.6898 27.2722 19.8256 25.8743 18.6056C24.3239 17.2585 22.3923 15.6064 18.7577 15.6064C15.0977 15.6064 13.166 17.2585 11.6156 18.6056C10.2177 19.8256 9.22641 20.6898 6.98975 20.6898C5.94766 20.6898 5.0835 21.5285 5.0835 22.596C5.0835 23.6381 5.94766 24.5023 6.98975 24.5023Z" fill="#141416"/>
</svg>
